M48
;Layer_Color=9474304
;FILE_FORMAT=4:4
METRIC,LZ
;TYPE=PLATED
T1F00S00C0.3000
T2F00S00C0.4000
T5F00S00C0.8000
%
T01
X00172Y00018751
Y00031501
Y00044251
Y00057001
Y00069751
Y00082501
Y00095251
Y00108001
Y00120751
Y00133501
X0018325Y00127
Y0011425
Y001015
Y0008875
Y00076
Y0006325
Y000505
Y0003775
Y00025001
Y0001225
X00210679Y00030539
X00240679
X00225679Y00060539
X00195679
X00210679Y00090539
X00240679
X00270679
X00225679Y00120539
X00195679
X00285679
X00315679
X00345679
X00360679Y00090539
X00330679
X00360679Y00030539
X004115Y001375
X00499Y00136
X009435
X01518Y00236
X01529Y00307
X01571Y00355
X01575Y0042275
X01574Y00483
X0159475Y004645
X016065Y005
X015865Y00516
X015678Y0053525
X015365Y0052725
X0166375Y00511
X0166225Y00481
X01643Y00479
X017125Y0047875
X017405Y0048175
X0174025Y00472
Y0044775
Y0043675
X0171425Y0042625
X0180075Y00428
X018015Y004475
Y0045775
X0180175Y00468
X01803Y0048825
X0178025Y0050375
X0170825Y0051975
X0165825Y003735
X0163325Y003155
X0165025Y0023925
X0181625
X0181725Y0031875
X0178475Y0037025
X014789Y0039975
X014804Y0042625
X0146065Y004365
X0144365Y0043675
X0144575Y0040175
X01405Y00405
X014039Y0042925
X013675Y004335
X0136675Y004095
X0136725Y0038025
X013635Y0034925
X0138475Y0033875
X01394Y0033475
X01428Y003335
X0142275Y00304
X014015Y0030175
X0137275Y0030525
X0137Y002855
X01345Y0027325
X0134675Y003095
X0135925Y0032075
X013445Y0036325
X01344Y0042675
X01354Y004525
X012505Y004615
X0125Y0050625
X012665Y0052375
X0126075Y005325
X01237Y005355
X01296Y00522
X0118675Y0049625
X011585Y0049325
X011345Y004955
X0113425Y00516
X0111125Y0047175
X0111065Y0044785
X0115875Y0042675
X0118675Y00448
X0118775Y0039575
X0119025Y0034975
X0118775Y003205
X011905Y0030275
X01209Y0028925
X01235Y002995
X01226Y00327
X0121125Y00324125
X01158Y00322
X011535Y00308
X0113925Y00306
X0115275Y00284
X0110225Y002615
X0110075Y0032925
X01088
X0111475Y003785
X0115825Y0037
X012525Y0037375
X0125275Y002385
X01088Y0020425
X01085Y0014275
X0142125Y002735
X01447Y0035325
X014645Y0036975
X01406Y0037925
X014649Y0045725
X01047Y004645
X010475Y0044025
X010485Y0040675
X010625Y0040675
X01064Y003675
X01039Y0038125
X0101725Y003785
X0103625Y0034725
Y0032175
X0102225Y0030925
X0099975Y00303
X0100325Y0032925
X009905
X0093725Y0032125
Y0034675
X00913Y0035075
X00876115Y00349936
X0085335Y0036115
X008237Y0034845
X0080025Y003695
X007855Y004035
X00776Y0042025
X00753Y004325
X00746Y0044375
X00759Y00445
X0074225Y00425
X007465Y00392
X00753Y00366
X007515Y0032175
X00794Y003135
X0078425Y002865
X0077025Y0028725
X008115Y002745
X0082625Y002745
X0084125Y002745
X0086775Y00284
X0089457Y0027901
X0090825Y0027916
X0091786Y0030305
X0091575Y0024525
X009035Y0021175
X0091789Y0018624
X0091575Y0017475
X00932Y00186
X0099409Y0018624
X010175Y001855
X0103925Y0018425
X0106425Y00218
X01058Y0027425
X0103219Y0027376
X0100679
X0098139
X0095599
X009415Y0038125
X00951Y0040675
X00965Y0040675
X009785Y004095
X0095Y0044025
X009495Y004645
X0091275Y0045825
X0090475Y0044775
X0092575Y0043925
X0090325Y0040625
X0086675Y0041
X0084225Y00403
X0082Y0041
X0081Y0043475
X0080875Y00467
X008305Y00462
X00831Y0047225
X00832983Y00502517
X00823751Y00502501
X00810751Y00498499
X0078975Y0050175
X00780751Y00497249
X0075865Y005094
X0074575Y00497
X0074675Y0047225
X007575Y00482
X00788Y004595
X00727Y00451
X007088Y004455
X0068475Y0045925
X0071825Y00499
X00718Y00513
X0078075Y005345
X00794
X0081375Y0053525
X008394Y005244
X008479Y005184
X00860875Y00495
X008635Y00483
X008645Y004635
X008534Y004454
X0087335Y005044
X0088175Y00512
Y00521
Y0053125
X0090325Y00535
X0091025Y00511
X0090325Y00498
X009055Y00481
X009395Y0050225
X0097625Y0050225
X009905Y0050875
X009795Y00527
X010485Y005115
X010625Y005115
X0101375Y0047175
X0101315Y0044785
X01073Y0029075
X008565Y0023525
X00794Y0024725
X0072425Y00269
X0071525Y0029575
X0071375Y003835
X00708Y004085
X00797Y0014575
X0067025Y00139
X0064125Y0017825
Y0019385
X0060633Y0020365
X00607Y0017825
X005745Y00264
X00607Y0031325
X006265Y00321
X006395Y0030525
X0063Y0036275
X0064125Y0038875
X00607Y0037975
X0060675Y0034575
X0059325Y0033
X00585679Y00420539
X0057475Y004255
X00555679Y00420539
X00525679
X00495679
X00465679
X00480679Y00450539
X00510679
X0052525Y00451
X00540679Y00450539
X00525679Y00480539
X00495679
X00465679
X00435679
X0043625Y00451
X00420679Y00450539
X0039925Y00435
X003855
X00375679Y00420539
X00405679
X00420679Y00390539
X004195Y0033075
X00390679Y00330539
X00378Y0032975
X00360679Y00330539
X00330679
X00300679
X00285679Y00300539
X0030425Y0028025
X00300679Y00270539
X00285679Y00240539
X00315679
X00345679
X0034425Y0020375
X00330679Y00210539
X00300679
X00315679Y00180539
X00285679
X00300679Y00150539
X003825Y0017825
X0041725Y001785
X0040725Y00205
X00387Y0022925
X00390679Y00270539
X00360679
X00341929Y00280039
X00375679Y00300539
X004055Y0030228
X0034425Y0035825
X00344Y003765
X00345679Y00420539
X00315679
X00285679
X0028375Y004505
X00300679Y00450539
X00330679
X00360679
X00345679Y00480539
X00315679
X00285679
X002855Y0051625
X00300679Y00510539
X00330679
X00360679
X00390679
X00420679
X00450679
X00480679
X00510679
X00540679
X00555679Y00480539
X00583Y004905
X0067275Y0049025
X006625Y004595
X0067175Y0042025
X0067575Y0034725
X0067Y00241
X0047275Y0023775
X0039825Y0047975
X00375679Y00480539
X00300679Y00390539
X006465Y005335
X0024625Y005305
X002335
X00222Y0052475
X002085Y005305
X0019575
X0018325Y0052225
Y005095
Y0049675
Y00484
Y0047125
Y004585
Y0044575
Y00433
Y0042025
X00195679Y00420539
X0018325Y004075
Y0039475
Y00382
Y0036925
Y003565
Y0034375
Y00331
Y0031825
Y003055
Y0029275
Y0028
Y0026725
Y002545
Y0024175
Y00229
Y0021625
Y002035
Y0019075
Y00178
Y0016525
Y001525
Y0013975
X00172Y00146251
Y00159001
Y00171751
Y00184501
Y00197251
Y00210001
Y00222751
Y00235501
Y00248251
Y00261001
Y00273751
Y002865
Y00299251
Y00312001
Y00324751
Y003375
Y00350251
Y00363
Y00375751
Y003885
Y0040125
Y00414
Y0042675
Y004395
Y0045225
Y00465
Y0047775
Y004905
Y0050325
Y00516
Y0052875
X002025Y0051225
X00195679Y00480539
X00225679
X00255679
X00240679Y00510539
Y00450539
X00210679
X00225679Y00420539
X00255679
X00270679Y00390539
X00240679
X00210679
X00225679Y00360539
X00255679
X00240679Y00330539
X00210679
X00225679Y00300539
X00195679
X00210679Y00270539
X00240679
X00270679
X00255679Y00240539
X00225679
X00195679
X00210679Y00210539
X00240679
X00270679
X00255679Y00180539
X00225679
X00195679
X00210679Y00150539
X00240679
X00270679
X00255679Y00300539
X00270679Y00330539
X00195679Y00360539
X00270679Y00450539
X0024625Y0055225
X002335
X0022075
X00208
X0019525
X0018325Y005605
Y0057325
Y00586
Y0059875
Y006115
Y0062425
Y00637
Y0064975
Y006625
Y0067525
Y00688
Y0070075
Y007135
Y0072625
Y00739
Y0075175
Y007645
Y0077725
Y0079
Y0080275
Y008155
Y0082825
X00172Y00822
Y0080925
Y007965
Y0078375
Y00771
Y0075825
Y007455
Y0073275
Y0072
Y0070725
Y006945
Y0068175
Y00669
Y0065625
Y006435
Y0063075
Y00618
Y0060525
Y005925
Y0057975
Y0056825
Y0055425
X00210679Y00570539
X00240679
X0025625Y0059275
X00225679Y00600539
X00195679
X00210679Y00630539
X00240679
X00270679
X00255679Y00660539
X00225679
X00195679
X00210679Y00690539
X00240679
X00270679
X00255679Y00720539
X00225679
X00195679
X00210679Y00750539
X00240679
X00225679Y00780539
X00195679
X00210679Y00810539
X00195679Y00840539
X00172Y0083475
X0018375Y00889
X00255679Y00780539
X00285679
X00300679Y00810539
X00330679
X00360679
X00390679
X00420679
X00450679
X00454Y0076975
Y00746
X00480679Y00750539
X00510679
X00540679
X00575Y00747
X0058225Y00739
X00596Y0073925
X00555679Y00720539
X00525679
X00495679
X00510679Y00690539
X00480679
X00495679Y00660539
X00525Y00658
X00540679Y00630539
X00525679Y00600539
X00495679
X00510679Y00570539
X00540679
X00555679Y00600539
X00585679
X00589Y00579
X00585679Y00540539
X00555679
X00495679
X00465679
X00435679
X00405679
X00375679
X00345679
X00315679
X00285679
X002855Y0057975
X00285679Y00600539
X00315679
X00345679
X00347329Y006288
X0034725Y006715
X00330679Y00690539
X00300679
X0028375Y00658
X0032175Y007215
X00345679Y00720539
X00375679
X00405679
X0044375Y0071875
Y007035
X00420679Y00690539
X0041325Y0068075
X0038525Y0067625
X00387Y00662
X004315Y0066225
X0044875Y006275
X00450679Y00570539
X00420679
X00390679
X00360679
X00330679
X00300679
X00375679Y00600539
X00405679
X00480679Y00570539
X006225Y006
X0064825Y006
X006525Y0063375
X00636Y006623
X0063925Y0076275
X006584Y007916
X00658Y00817
Y0084225
X006725Y0087425
X00671Y0091225
X00627Y00883
X0060825Y0092825
X0058825Y008555
X005695
X005625Y00842
X00562Y00817
X0056215Y007916
X00525679Y00780539
X0050375Y0078075
X0047575Y007805
X00465679Y00840539
X004405Y00845
X0043975Y00863
X003855Y0086225
X00385Y00876
X0037625Y0084575
X0039525Y00837
X0040925Y00837
X00405679Y00780539
X0036975Y007875
X00345679Y00780539
X00333Y007715
X00300679Y00750539
X003584Y007421
X00420679Y00750539
X00495679Y00840539
X00525679
X0050625Y0091775
X0043125Y0091225
X0034975Y0086775
X00345679Y00840539
X003015Y00887
X00540679Y00690539
X0068Y007865
X0065575Y0055925
X007Y0053725
X0071875Y005805
Y005945
X007285Y00571
X0076075Y005695
X007626Y005494
X0078375Y005585
X0081075Y0057875
X00835751Y00586499
X0085075Y0058675
X00862Y0058825
X0088075Y0058175
X008734Y005744
X008805Y0060225
Y0061625
X008615Y006245
X0084325Y0061625
X00827751Y00619
X00818751
X0080725Y0061875
X0082075Y006623
X008285Y006685
X00839
X00851Y006525
X0087475Y0066875
X0086Y0068525
X0087975Y0072075
X008989Y007231
X009135Y007145
X009185Y00687
X0091525Y006535
X00907Y00645
X0091675Y00629
X00917Y0059475
X0091825Y00565
X0094025Y005475
X00955025Y00595025
X0097925Y006275
X00979Y0065925
X0094875Y0066425
X0101775Y006645
X010185Y00687
X010435Y006905
X0107025Y00707
X010645Y006623
X010035Y0064575
X01017Y0059875
X010535Y0058175
X0103175Y0055975
X0103775Y005415
X01036Y0074075
X0103625Y0075475
X0103125Y0077325
X0101975Y0080325
X0105675Y008065
X010465Y0083475
X0104275Y008775
X009867Y008775
X00973Y0086075
X009465Y00861
X0094775Y0084975
X00949Y00884
X00903Y0086775
X0087825Y00862
X008325Y00856
X0080875Y0087625
X0079025Y0089025
X00758Y0083675
X00768Y0081725
X00729Y00818
X00729Y0079025
X00727Y007745
X0071125Y0079
X00711Y0084325
X0068075Y00863
X00711Y009145
X0072175Y0073875
X0071925Y0070725
X0072525Y00685
X00726Y006705
X0074975Y00681
X007725Y00653
X007705Y0072925
X0079025Y0074175
X007965Y00766
X0080325Y0079025
X0080325Y0079025
X0084575Y0077475
X0086775Y007665
X009105Y0076875
X0090775Y00786
X00927Y007935
X0091375Y00822
X0096875Y0082775
X00983Y008275
X0100775Y008445
X0101375Y00732
X0097775Y00714
X009905Y0069675
X009335Y00732
X008285Y0071575
X0080925Y0072225
X0084775Y00812
X0068175Y00718
X006885Y00653
X0082825Y0054725
X0106475Y0076425
X010895Y0073425
X01104Y00736
X0111825Y00731
X0113175Y0072375
X0113Y0069
X0116594Y0069194
X01159Y0070125
X0119025Y007
X01193Y0067975
X011915Y00648
X012295
X01242Y0064425
X0125484Y0064889
X01277188Y00638688
X01279Y00667
X0127875Y006955
Y007145
X01315188Y00725687
X01328938Y00725437
X01352188Y00721687
X01358438Y00700687
Y00687937
Y00675188
X01347912Y00663688
X01336438Y00660938
X01330188Y00648938
X01316187
X01304187Y00650437
X01348163Y00648938
X0135875Y0063925
X013575Y0061475
X013435Y006145
X0133075Y0059725
X013185Y0058975
X01307
X01294687Y00596688
X0126875Y005785
X01239Y0057225
X012355Y0060825
X0122325Y006085
X0121675Y00616375
X0120025Y00616625
X0119134Y0057684
X0117864Y0057686
X0116225Y005395
X0111075Y0053975
X01102001Y00578751
X01095638Y00572388
X010835Y0057
X0109925Y0059575
X0109625Y0061025
X010885Y0062675
X01089Y0066925
X0111175Y0067
X0115175Y0066825
X0116125Y0074075
X012069Y007503
X01218Y0071475
Y006955
X0124125Y007815
X01231Y0080325
X0121545Y0081525
X011709Y008088
X0114925Y00828
X011585Y008435
X01158Y0085425
X011665Y00878
X0118975Y0087825
X012325Y00857
X0129175Y0087725
X0130575Y008775
X013495Y008435
X013775Y008425
X0139525Y0082475
X0141075Y0083625
X014285Y0082475
X01439Y008805
X0141275Y0088975
X0139925Y0088975
X0138575Y0088975
X0135125Y0080575
X01339Y008055
X01334Y0081775
X01315409Y00805076
X0129165Y007808
X0132015Y007543
X01341187Y00697688
X01392Y0066825
X014105Y006545
X0141025Y00625
X0141825Y0061725
X01428
X0143925Y00628
X0147096Y00627202
X0147Y00608
X0147075Y0057775
X0145565Y00572
X0144315
X014305Y00581
X0140325Y005955
X014Y00567
X013674Y005625
X0137325Y0058525
X0136775Y0060375
X0138075Y00614
X01383Y0063575
X0143925Y00664
X01462Y00646
X0147092Y00651903
X0147088Y00676605
X0147084Y00701307
X0147275Y0075025
X0139625Y007425
X0113225Y007805
X0111375Y008025
X01113Y00817
X0111325Y0083275
X0111425Y0086075
X0109Y008745
X010805Y0083075
X0112475Y00577
X01484Y0056175
X0148875Y0054925
X016305Y0053875
X0166375Y0054775
X0166125Y0056075
X0164575Y0057075
X0162925Y005905
X0166275Y0061625
X0167625Y00616
X0168925Y0061625
X01715Y0059475
X01724Y005705
X0172475Y0054375
X01708Y0054825
X0180125Y00548
X018015Y0056325
X0180125Y00622
X017685Y00621
X0181725Y00652
X01746Y006905
X01701Y0070825
X0167625Y0072775
X01676Y0068825
X016505Y0070825
X0163775Y007445
X016245Y0074425
X016105Y007445
X015845Y0075475
X0158825Y008075
X0162Y0080775
X0164475Y008265
X0167275Y0079425
X01755Y00821
X0171925Y008585
Y00872
Y008835
X016855Y0089175
X016045Y00885
X0162775Y00923
X017385Y009295
X018165Y0091175
X01819Y008045
X0153425Y008055
X015415Y0081575
X0153425Y0077475
X0152525
Y0076275
X0153425
X01528Y00745
X015445Y0073
X01528Y00707
X015425Y00691
X0160725Y00694
X0149Y00826
X0148925Y008605
X0149825
Y008725
X0148925Y008725
X014955Y0089025
X014795Y0090425
X014955Y0092825
X0153575Y008955
X015285Y0093325
X0155275Y009475
X0155271Y00972202
Y00996863
X015635Y0099425
X0155271Y01021525
Y01046187
X0155325Y0107075
X0155275Y01085
X0154Y010865
X0154546Y0110435
X0157821Y011001
X0160335Y0110935
X0160765Y0115635
X0158296Y011471
X0155021Y0115135
X01517Y0116075
X0147525Y0118625
X01485Y01282
X01499625
X0151425
X01528875
X015435
X015435Y0130125
X015435Y0131575
X01528875
X01528875Y0130125
X0151425
X0151425Y0131575
X01499625
X01499625Y0130125
X01485
X01485Y0131575
X01598Y0130875
X0164575Y01292
X0167975Y0130775
X0173525
X0170025Y0123125
X016825Y01185
X0166525Y0118525
X0165225Y01196
X0163835Y0119595
X0162375Y0119525
X0162885Y0122295
X01592Y012245
X0155525
X0157325Y012475
X015735Y0120125
X0163775Y011735
X016655Y0115925
X016825
X01703Y0108525
X01683Y01063
X0166575Y0106325
X01666Y0103725
X01683
X0164221Y0097879
X0162946Y009806
X0162775Y009685
X0164575Y0094575
X01719Y00958
X01758Y00958
X017385Y009865
X01777Y0103175
X01778Y0106575
X017995Y0105
X0179925Y0108475
Y0110175
Y0112175
X018165Y0113975
X0179875Y0117225
X017765Y011895
X0177675Y011545
X0181225Y0126125
X0181275Y0101625
X0151625Y0108775
X014946Y0095579
X01482Y009415
X0138875Y00934
X01391Y009775
X013925Y01039
X013445Y0102925
X0132975Y0105325
X013355Y0108125
X0136075Y010885
X0137475Y0108825
X013875Y011258
X01389Y0118075
X0137575Y0119725
X01385Y0121625
X01396Y0123275
X0135675Y012785
Y0130325
X01384Y01314
X013745Y0132625
X0141775Y0131575
X01336Y0127325
X0132075Y01267
X012775Y01271
X0123835Y0126004
X01237Y01236
Y012235
X0124775Y012225
X01246Y012105
X012605Y011985
X01221Y01203
X013095Y012105
X013375Y011615
X012965Y01126
X0126075Y011215
X0125325Y0108975
X0125625Y01077
X01239Y010725
Y0106225
X01233Y010845
X0122325Y0108425
X0120125Y0111475
X0120375Y0102575
X01239Y0103275
X0124075Y010115
X0129175Y0101175
Y010455
X0127625
X01279Y0094375
X013175Y00938
X012275Y00942
X0120225Y009535
X011535Y0094475
X011391Y010119
X011395Y01036
X01102Y01115
X01221Y0131175
X01252Y0131925
X012426Y0129279
X01434Y011105
X014465
X014605
X01446Y0109325
X0105675Y0107025
X010629Y010119
X010765Y0094325
X0104975Y0094025
X01Y0094425
X0092475Y0094375
X0089725Y0094175
X008485Y0094425
X0079575Y00943
X0076825Y0097975
X0076775Y0101975
X007515Y0103625
X007405Y0102775
X007355Y01014
X0072525
X0071375Y0099775
X0071825Y0098125
X0068375Y009565
X0070875Y010395
X0073075Y01046
X007595Y01054
X0068625Y010625
Y010945
X0068975Y0111475
X00795Y011145
X008935Y01115
X0084675Y0105875
X008851Y010119
X009359Y010119
X0097475Y010435
X0095525Y01069
X010055Y0111475
X0067525Y011085
X00665Y0109375
X006435Y01097
X0063125Y011
X0063475Y0107075
X006435Y01077
X00665Y01063
X006755Y0106275
X0067125Y0104275
X0067525Y009795
X006233Y0096575
X00632Y00946
X005965Y010155
X005335Y01056
X0048975Y009885
X0043725Y0093725
X0036575Y00936
X00323Y009425
X0038Y00984
X0042525Y010405
X00312Y0103525
X0037125Y01114
X0047725Y0111475
X0058825
X00265
X0020675Y0112175
X00185Y0108175
X001855Y0098275
X00258Y0094975
X0016025Y01295
X0001875Y01296
X000165Y0145275
X0001525Y01558
X000885Y0156425
X001105Y0152695
X0017275Y0152175
X0016075Y0154525
X001885Y015545
X0019Y015685
X001875Y0159325
X002075Y01587
X0016375Y0157975
X00146Y0158025
X0015275Y016225
X0016375
X0013875Y0162275
X001005Y0163575
X0020475Y016375
X0023175Y0153725
X0017175Y01477
X0028875Y01588
X003065Y0157825
X0033575Y0157575
X0032175Y0161055
X0031225Y0163975
X003495Y015375
X00389Y0157675
X0042175Y01558
X00443Y01555
X00501Y0158975
X00546Y015595
X00575Y0154925
X0062125Y0153925
X006545Y0157125
X0064325Y015875
X0062675Y0161625
X0067375
X0067725Y0156275
X005595Y016425
X007025Y01592
X00744Y0154
X008225Y0163775
X009935Y0163475
X0104575Y0154125
X0092525
X0121675Y0153775
X0130275Y015355
X01329Y0146975
X0133125Y014515
X0133075Y0140695
X013295Y0139275
X0132025Y013675
X0130625Y0136725
X01321Y0134025
X0137975Y0134575
Y0137025
X014065Y0142725
X0138675Y014515
X01399Y0147325
X01401Y015325
X01333Y0163625
X0112975Y01637
X01221Y014325
X0123475Y01367
X01485Y0135
X01499625
X0151425
X01528875
X015435
X015435Y0133025
X01528875
X0151425
X01499625
X01485
X014913Y013835
X0149126Y01408202
X0149122Y01432903
X0149118Y01457605
X0149114Y01482307
X0153125Y014515
X0158675
X0158725Y0140675
X0158775Y013925
X0159775Y01367
X01567Y0142225
X0166025Y01416
X0174425Y013515
X0161925Y015255
X01616642Y01629752
X01496Y0163325
T02
X0075325Y002805
X00976Y0032575
X01074Y0032675
X010345Y0048825
X00937Y0048825
X0059425Y0029
X0052125Y0033875
X00377Y0037725
X00357Y0079025
X0066975Y0056125
X0109125Y00782
X0111925Y0076875
X0141275Y0085525
X0143825Y008525
X01453Y0085275
X014725Y008415
X0143525Y0090925
X015175Y0088725
X0151475Y0084125
X0153
X0154575
X01551Y0079375
X015705Y007825
X0158525Y0078275
X0161075Y0078
X0158825Y00726
X01506Y00748
X0150875Y00794
X014935
X0147775
X0153375Y0057425
X01486Y0107125
X0141425Y012905
X014115Y01326
X0138575Y0130305
X014115Y01341
X0143625Y0147375
Y01488
T05
X014475Y0037
M30
