M48
;Layer_Color=9474304
;FILE_FORMAT=4:4
METRIC,LZ
;TYPE=NON_PLATED
T7F00S00C2.0000
T8F00S00C3.1750
T9F00S00C3.2000
T10F00S00C4.7500
%
T07
X007835Y00181
X00559
Y00151
X003345
T08
X0012575Y0008
X0171075Y00321
X015005Y01585
T09
X003Y0005
X0178Y00275
X00845Y00175
X0025Y0085
X00049997Y0079
X0097Y0077
X0178
X00049997Y01602
X01574997Y01552
T10
X011767Y01051
X002467
Y01601
X011767
M30
