M48
;Layer_Color=9474304
;FILE_FORMAT=4:4
METRIC,LZ
T6F00S00C1.0000
%
G90
G05
T06
G00X01203158Y01129192
M15
G01X01204068Y01129569
G01X01204887Y01130116
G01X01205584Y01130813
G01X01206131Y01131632
G01X01206508Y01132542
G01X012067Y01133508
G01X012067Y01518492
G01X01206508Y01519458
G01X01206131Y01520368
G01X01205584Y01521187
G01X01204887Y01521884
G01X01204068Y01522431
G01X01203158Y01522808
G01X01202192Y01523
G01X00221208Y01523
G01X00220241Y01522808
G01X00219332Y01522431
G01X00218513Y01521884
G01X00217816Y01521187
G01X00217269Y01520368
G01X00216892Y01519458
G01X002167Y01518493
G01X002167Y01133507
G01X00216892Y01132542
G01X00217269Y01131632
G01X00217816Y01130813
G01X00218513Y01130116
G01X00219332Y01129569
G01X00220242Y01129192
G01X00221207Y01129
G01X01202192Y01129
G01X01203158Y01129192
M16
G00X00368933Y-00004499
M15
G01X00370287Y-00003535
G01X00380287Y00006474
G01X00381475Y00008373
G01X0038175Y00010008
G01X0038175Y00115
G01X00381723Y0011512
G01X00381879Y00116305
G01X00382382Y00117521
G01X00383184Y00118566
G01X00384228Y00119368
G01X00385445Y00119871
G01X0038666Y00120031
G01X0038675Y0012
G01X0109Y0012
G01X01092183Y00120502
G01X01093536Y00121464
G01X01103536Y00131464
G01X01104724Y00133362
G01X01105Y00135005
G01X01104914Y00214675
G01X01105129Y00216305
G01X01105632Y00217521
G01X01106434Y00218566
G01X01107478Y00219368
G01X01108695Y00219871
G01X0110991Y00220031
G01X0111Y0022
G01X0182Y0022
G01X01822183Y00220502
G01X01823536Y00221464
G01X01833536Y00231464
G01X01834724Y00233362
G01X01835Y00235
G01X01835Y01345
G01X01834498Y01347183
G01X01833514Y01348556
G01X01823514Y01358439
G01X0182161Y01359616
G01X01820178Y01359879
G01X01807151Y01360344
G01X01794367Y01361719
G01X01781714Y01364002
G01X01769256Y01367181
G01X01757056Y01371242
G01X01745178Y01376162
G01X0173368Y01381917
G01X01722622Y01388478
G01X01712061Y0139581
G01X0170205Y01403878
G01X0169264Y0141264
G01X01683878Y0142205
G01X0167581Y01432062
G01X01668478Y01442622
G01X01661917Y0145368
G01X01656162Y01465178
G01X01651242Y01477056
G01X01647181Y01489256
G01X01644002Y01501714
G01X01641718Y01514367
G01X01640344Y01527151
G01X01639885Y01540003
G01X01639997Y01540003
G01X01639997Y01642
G01X01639875Y01642
G01X01639869Y01643148
G01X01638537Y01645536
G01X01628531Y01655536
G01X01626633Y01656725
G01X01624997Y01657
G01X00010002Y01657
G01X0000782Y01656498
G01X00006468Y01655536
G01X-00003538Y01645536
G01X-00004727Y01643639
G01X-00005003Y01642
G01X-00005003Y0129
G01X-00004502Y01287817
G01X-00003539Y01286464
G01X00006461Y01276464
G01X00008359Y01275276
G01X00009997Y01275
G01X00156Y01275
G01X00156214Y01275049
G01X00158346Y01274768
G01X00160535Y01273862
G01X00162416Y01272419
G01X00163858Y01270539
G01X00164765Y0126835
G01X00165053Y01266161
G01X00164997Y01265998
G01X00165117Y00854327
G01X00164765Y00851651
G01X00163858Y00849461
G01X00162416Y00847581
G01X00160535Y00846138
G01X00158346Y00845232
G01X00156159Y00844944
G01X00155997Y00845
G01X00009997Y00845
G01X00007814Y00844498
G01X00006461Y00843536
G01X-00003539Y00833536
G01X-00004728Y00831638
G01X-00005003Y0083
G01X-00004994Y00115006
G01X-00004493Y00112823
G01X-00003089Y00111079
G01X-00001573Y00110262
G01X00002944Y00108759
G01X00014822Y00103838
G01X0002632Y00098083
G01X00037377Y00091522
G01X00047939Y00084189
G01X0005795Y00076122
G01X0006736Y0006736
G01X00076122Y0005795
G01X00084189Y00047939
G01X00091522Y00037377
G01X00098083Y0002632
G01X00103838Y00014822
G01X00108759Y00002944
G01X00110263Y-00001578
G01X00111428Y-0000349
G01X00113312Y-00004702
G01X00115007Y-00004999
G01X0036675Y-00005001
G01X00368933Y-00004499
M16
M17
M30
